<svg width="56" height="70" viewBox="0 0 56 70" fill="none" xmlns="http://www.w3.org/2000/svg">
<path d="M38.7371 43.0599L39.2811 48.4999H32.1771L31.7291 43.6999C31.5371 41.5879 30.4811 40.5319 28.5611 40.5319H25.4571V48.4999H18.2891V25.7159H31.5691C33.7878 25.7159 35.6011 26.3239 37.0091 27.5399C38.4171 28.7986 39.1211 30.4092 39.1211 32.3719C39.1211 35.0599 37.8305 36.9159 35.2491 37.9399C37.2971 38.6652 38.4598 40.3719 38.7371 43.0599ZM25.4571 35.4759H29.5211C30.2678 35.4759 30.8545 35.2839 31.2811 34.8999C31.7291 34.4946 31.9531 33.9612 31.9531 33.2999C31.9531 32.6599 31.7398 32.1479 31.3131 31.7639C30.8865 31.3586 30.2891 31.1559 29.5211 31.1559H25.4571V35.4759Z" fill="white"/>
<path d="M44.4 29C44.9333 25.3158 47.5333 21.9605 51 21.9605V21.0395C47.5333 21.0395 44.9333 17.6842 44.4 14H43.5333C43.0667 17.6842 40.4 21.0395 37 21.0395V21.9605C40.4 21.9605 43.0667 25.3158 43.5333 29H44.4Z" fill="#007BFF"/>
</svg>
