<svg width="124" height="124" viewBox="0 0 124 124" fill="none" xmlns="http://www.w3.org/2000/svg">
<path d="M87.4093 32.0839C81.524 27.0758 74.799 24.2234 67.2344 23.5269C64.2023 23.2476 61.1349 23.3768 58.032 23.9142C47.6418 25.7217 39.5857 31.1682 33.8637 40.2536C30.9734 45.2497 29.3881 50.6226 29.1077 56.3724C29.0183 63.278 30.8224 69.6523 34.52 75.4951C35.0931 76.2667 35.637 77.0594 36.1515 77.873C36.7216 78.7678 36.6168 79.5979 35.8373 80.3636L51.1268 67.9109C51.9433 67.2203 52.1436 66.3796 51.7276 65.3888C51.703 65.3347 50.9157 64.2583 49.3658 62.1596C46.115 57.767 43.69 52.9751 42.0908 47.7838C41.3266 45.3008 41.0431 42.6406 41.2404 39.8032C41.379 37.7826 42.0985 36.0817 43.3988 34.7006C44.8008 33.2143 46.5849 32.4382 48.7511 32.3721C49.6539 32.3451 50.5028 32.3661 51.2978 32.4352C52.0619 32.5043 52.8924 32.6739 53.789 32.9441C56.9381 33.8989 59.8962 35.2665 62.6632 37.047C67.1065 39.9083 70.9535 43.2846 74.2043 47.1758C74.6973 47.7643 74.6788 48.3363 74.1489 48.8917L87.3121 38.3235C87.6256 37.9686 88.0509 37.6272 88.5879 37.2992C89.1087 36.9779 89.5477 36.424 89.9052 35.6373C90.0253 35.217 89.9899 34.8702 89.7989 34.597C89.2504 33.8103 88.4539 32.9726 87.4093 32.0839Z" fill="#0F172A"/>
<path fill-rule="evenodd" clip-rule="evenodd" d="M88.0659 48.2491C87.1044 46.9999 87.0766 45.8626 87.9826 44.8372L75.1683 55.4743C74.5028 56.1679 73.4727 56.7731 72.7763 57.4276C72.2063 57.962 71.8812 58.4004 71.8011 58.7427C71.6747 59.3072 71.8504 59.8851 72.328 60.4766C75.3138 64.1546 77.8852 68.3295 80.0421 73.0014C81.364 75.8627 82.1759 78.7706 82.4779 81.7251C82.8076 84.9197 82.4501 87.4508 81.4056 89.3183C79.905 92.0055 77.178 93.2095 73.2247 92.9303C70.5901 92.7441 67.9541 91.98 65.3164 90.6379C59.0121 87.4312 53.8199 83.3629 49.7402 78.4328C49.1239 77.6912 49.1809 76.9031 49.9112 76.0684C50.016 75.9483 50.6446 75.4004 51.797 74.4246L36.5075 86.8773C35.8419 87.4688 35.1748 88.0573 34.5061 88.6427C33.8868 89.1862 33.6726 89.7762 33.8637 90.4127C33.9654 90.755 34.2904 91.2083 34.8389 91.7728C36.7647 93.7574 38.9294 95.4628 41.3328 96.889C52.1421 103.023 63.312 103.612 74.8423 98.6545C81.0728 95.652 86.0029 91.2609 89.6327 85.4811C93.0407 79.8845 94.703 73.8106 94.6198 67.2592C94.4165 60.8939 92.6046 55.0421 89.1844 49.7038C89.1721 49.6827 88.7992 49.1978 88.0659 48.2491Z" fill="#0F172A"/>
<g filter="url(#filter0_d_2942_927)">
<path d="M62.0431 52.192C62.2298 54.6946 63.1517 56.8292 64.8089 58.5956C66.7296 60.6424 69.118 61.754 71.9741 61.9305L72.0115 61.9922C69.7175 62.1344 67.7429 62.8564 66.0877 64.1582C63.58 66.1305 62.2278 68.6826 62.0312 71.8146C62.0142 72.0773 61.9967 72.0773 61.9788 71.8146C61.821 69.5011 61.0294 67.4906 59.6038 65.783C58.9709 65.0242 58.2397 64.3616 57.4101 63.795C55.8428 62.7235 54.1188 62.127 52.238 62.0055C51.9055 61.9839 51.905 61.9584 52.2365 61.929C54.2171 61.7545 55.9816 61.133 57.5299 60.0645C58.3465 59.5009 59.0693 58.8294 59.6982 58.0501C61.0449 56.3807 61.8056 54.428 61.9803 52.192C62.0022 51.9205 62.0232 51.9205 62.0431 52.192Z" fill="url(#paint0_linear_2942_927)"/>
</g>
<defs>
<filter id="filter0_d_2942_927" x="51.9883" y="51.9883" width="21.5234" height="21.5233" filterUnits="userSpaceOnUse" color-interpolation-filters="sRGB">
<feFlood flood-opacity="0" result="BackgroundImageFix"/>
<feColorMatrix in="SourceAlpha" type="matrix" values="0 0 0 0 0 0 0 0 0 0 0 0 0 0 0 0 0 0 127 0" result="hardAlpha"/>
<feOffset dx="1" dy="1"/>
<feGaussianBlur stdDeviation="0.25"/>
<feComposite in2="hardAlpha" operator="out"/>
<feColorMatrix type="matrix" values="0 0 0 0 0 0 0 0 0 0 0 0 0 0 0 0 0 0 0.21 0"/>
<feBlend mode="normal" in2="BackgroundImageFix" result="effect1_dropShadow_2942_927"/>
<feBlend mode="normal" in="SourceGraphic" in2="effect1_dropShadow_2942_927" result="shape"/>
</filter>
<linearGradient id="paint0_linear_2942_927" x1="61.9999" y1="72.0116" x2="61.9999" y2="51.9883" gradientUnits="userSpaceOnUse">
<stop offset="0.03125" stop-color="#0F172A"/>
<stop offset="0.526042" stop-color="#2E3192"/>
<stop offset="1" stop-color="#1BFFFF"/>
</linearGradient>
</defs>
</svg>
