<svg width="21" height="51" viewBox="0 0 21 51" fill="none" xmlns="http://www.w3.org/2000/svg">
<path d="M0 19.8333V30.3333C0 36.1083 4.725 40.8333 10.5 40.8333C16.275 40.8333 21 36.1083 21 30.3333V19.8333C21 14.0583 16.275 9.33331 10.5 9.33331C4.725 9.33331 0 14.0583 0 19.8333ZM10.5 11.6666C14.9917 11.6666 18.6667 15.3416 18.6667 19.8333V30.3333C18.6667 34.825 14.9917 38.5 10.5 38.5C6.00833 38.5 2.33333 34.825 2.33333 30.3333V19.8333C2.33333 15.3416 6.00833 11.6666 10.5 11.6666Z" fill="white"/>
<path d="M10.4997 21.5833C11.1413 21.5833 11.6663 21.0583 11.6663 20.4167V16.9167C11.6663 16.275 11.1413 15.75 10.4997 15.75C9.85801 15.75 9.33301 16.275 9.33301 16.9167V20.4167C9.33301 21.0583 9.85801 21.5833 10.4997 21.5833Z" fill="white"/>
<path d="M9.68366 49.8166C9.91699 50.05 10.2087 50.1666 10.5003 50.1666C10.792 50.1666 11.0837 50.05 11.317 49.8166L14.2337 46.9C14.7003 46.4333 14.7003 45.7333 14.2337 45.2666C13.767 44.8 13.067 44.8 12.6003 45.2666L10.5003 47.3666L8.40033 45.2666C7.93366 44.8 7.23366 44.8 6.76699 45.2666C6.30033 45.7333 6.30033 46.4333 6.76699 46.9L9.68366 49.8166Z" fill="white"/>
<path d="M9.68366 0.35L6.76699 3.26667C6.30033 3.73333 6.30033 4.43333 6.76699 4.9C7.00033 5.13333 7.29199 5.25 7.58366 5.25C7.87533 5.25 8.16699 5.13333 8.40033 4.9L10.5003 2.8L12.6003 4.9C12.8337 5.13333 13.1253 5.25 13.417 5.25C13.7087 5.25 14.0003 5.13333 14.2337 4.9C14.7003 4.43333 14.7003 3.73333 14.2337 3.26667L11.317 0.35C10.8503 -0.116667 10.1503 -0.116667 9.68366 0.35Z" fill="white"/>
</svg>
