<svg width="42" height="42" viewBox="0 0 42 42" fill="none" xmlns="http://www.w3.org/2000/svg">
<g clip-path="url(#clip0_2942_991)">
<path d="M16.5268 42.082C16.0513 41.8154 15.5369 41.7912 15.0637 41.6358C13.6608 41.1753 12.4664 40.3856 11.4109 39.3806C10.5102 38.5232 9.64556 37.6279 8.76864 36.7457C7.15497 35.1224 6.13984 33.204 5.86155 30.9101C5.82188 30.5832 5.79815 30.2605 5.79806 29.9344C5.79655 24.3574 5.81446 18.7803 5.78519 13.2034C5.77764 11.7661 7.07951 10.532 8.45005 10.5227C10.2913 10.5102 12.1892 11.9454 12.431 14.0634C12.5969 15.5173 12.8957 16.9559 13.1284 18.4024C13.2276 19.0187 13.3142 19.6372 13.3956 20.2562C13.4139 20.3952 13.4519 20.5201 13.5193 20.6478C13.6915 20.6409 13.7704 20.497 13.8705 20.3969C17.5918 16.6761 21.31 12.9524 25.0301 9.2305C25.7716 8.48862 26.6637 8.00516 27.7156 8.02777C28.9779 8.05489 30.2273 8.61151 30.8726 10.0958C30.9046 10.1693 30.9414 10.2407 30.9911 10.3448C31.2215 10.242 31.434 10.1306 31.6577 10.0501C33.0188 9.56071 34.2973 9.7367 35.3436 10.7369C36.7367 12.0687 36.753 14.2561 35.3736 15.6499C33.3834 17.6608 31.3773 19.6561 29.3735 21.6537C29.24 21.7868 29.0691 21.8826 28.8531 22.0418C31.2464 23.2994 31.7224 25.071 30.6727 27.3509C31.0056 27.5409 31.3531 27.7158 31.6724 27.949C33.1763 29.0477 33.3265 31.5163 32.1858 32.803C31.505 33.571 30.6925 34.1912 29.9644 34.9051C29.2656 35.5902 28.5081 36.2152 27.7801 36.8708C26.4968 38.0265 25.2827 39.2622 23.9092 40.3138C22.9137 41.0759 21.7841 41.5792 20.5598 41.8615C20.3612 41.9073 20.1606 41.9452 19.9572 42.0652C18.8109 42.082 17.6881 42.082 16.5268 42.082ZM24.7856 16.54C25.0861 16.2412 25.3934 15.9491 25.6857 15.6426C26.7507 14.5257 27.9031 13.4955 28.9218 12.3315C29.6357 11.5158 29.0621 10.3504 28.2613 10.0482C27.4824 9.7542 26.8893 10.1094 26.3599 10.6385C22.1055 14.8907 17.849 19.1407 13.604 23.4022C13.2794 23.7281 12.9204 23.8033 12.524 23.7081C12.1184 23.6106 11.9373 23.2541 11.8862 22.881C11.8123 22.3424 11.7109 21.8094 11.6271 21.2732C11.2625 18.9404 10.9162 16.6046 10.5414 14.2735C10.4062 13.4324 9.9243 12.829 9.11692 12.5195C8.23974 12.1832 7.65843 12.5866 7.65826 13.5241C7.65727 18.965 7.64767 24.406 7.66612 29.8468C7.66984 30.943 7.94342 31.9982 8.41297 32.9986C8.981 34.2088 9.87454 35.1587 10.8207 36.0706C11.7243 36.9416 12.5318 37.9212 13.5444 38.6681C15.232 39.9129 17.1199 40.4746 19.2325 40.1746C20.5401 39.9889 21.7178 39.5185 22.7865 38.7371C23.6146 38.1317 24.3301 37.4015 25.0953 36.7284C26.5161 35.4787 27.8694 34.1524 29.2833 32.8946C29.6994 32.5245 30.1273 32.1575 30.5314 31.7785C31.4913 30.8781 31.0642 29.6145 30.0864 29.2448C29.4079 28.9883 28.8466 29.233 28.3205 29.6706C27.8982 30.022 27.4019 29.9731 27.0406 29.5894C26.6442 29.1683 26.705 28.5802 27.2122 28.0637C27.7677 27.4981 28.3365 26.9456 28.8918 26.3798C29.3956 25.8664 29.4539 25.1129 29.0467 24.5525C28.5835 23.9151 27.8385 23.7073 27.1673 24.024C26.5915 24.2958 26.2532 24.8342 25.796 25.2389C25.419 25.5727 25.1288 26.0024 24.6838 26.2607C24.1598 26.5648 23.5244 26.297 23.336 25.7239C23.1647 25.2027 23.4403 24.8584 23.7645 24.5336C27.1739 21.1193 30.5866 17.7085 33.9976 14.2958C34.3748 13.9184 34.5979 13.4755 34.4651 12.9314C34.3145 12.3144 33.9374 11.898 33.3052 11.7345C32.7078 11.58 32.2422 11.8121 31.8334 12.221C29.6102 14.4443 27.3873 16.668 25.1639 18.8912C23.9556 20.0995 22.7503 21.3109 21.5363 22.5135C21.0597 22.9856 20.4796 23.0231 20.087 22.634C19.6431 22.1939 19.6692 21.671 20.1684 21.1697C21.6923 19.6394 23.2185 18.1113 24.7856 16.54Z" fill="white"/>
<path d="M22.9307 0.0820313C24.1197 1.22708 25.2725 2.37062 26.4217 3.51775C27.0899 4.18476 27.0882 4.65876 26.4253 5.32167C25.3523 6.39458 24.2801 7.46813 23.206 8.53985C22.7864 8.95843 22.2827 9.01665 21.895 8.69738C21.478 8.35395 21.413 7.83697 21.753 7.34848C22.1219 6.81841 22.6435 6.42858 23.0781 5.95811C23.2343 5.78905 23.4277 5.65203 23.5363 5.43016C23.3888 5.30871 23.2186 5.36497 23.0642 5.36483C18.2387 5.36047 13.4133 5.36053 8.58791 5.35957C7.94067 5.35944 7.5219 5.0035 7.52246 4.45621C7.52307 3.85931 7.91832 3.50269 8.61157 3.50058C10.4023 3.49515 12.193 3.49861 13.9838 3.49847C17.0321 3.49822 20.0805 3.49855 23.1288 3.49553C23.2592 3.4954 23.4006 3.53833 23.5678 3.40957C23.2102 3.04654 22.8608 2.69096 22.5105 2.33627C22.2991 2.12233 22.0804 1.91534 21.8755 1.69548C21.3919 1.17675 21.4221 0.614082 21.9679 0.105359C22.287 0.0820312 22.5899 0.0820312 22.9307 0.0820313Z" fill="white"/>
</g>
<defs>
<clipPath id="clip0_2942_991">
<rect width="42" height="42" fill="white"/>
</clipPath>
</defs>
</svg>
