<svg width="1340" height="1290" viewBox="0 0 1340 1290" fill="none" xmlns="http://www.w3.org/2000/svg">
<g opacity="0.8">
<path d="M421.76 892.859C393.687 904.627 383.024 933.477 401.373 949.945C439.124 983.835 594.539 967.094 601.851 944.122C609.055 921.491 480.341 868.295 421.76 892.859Z" stroke="url(#paint0_radial_2930_886)" stroke-width="2" stroke-miterlimit="10"/>
<path d="M491.323 817.481C555.449 794.992 663.123 955.108 618.678 992.91C591.352 1016.15 525.201 1013.25 471.255 1005.61C420.612 998.44 348.249 969.121 330.396 920.429C320.943 894.58 326.618 857.751 346.639 844.854C362.133 834.875 383.051 839.364 387.665 837.704C409.664 846.84 412.892 850.391 430.418 852.534C453.327 855.336 473.688 823.664 491.323 817.481Z" stroke="url(#paint1_radial_2930_886)" stroke-width="2" stroke-miterlimit="10"/>
<path d="M556.387 738.728C630.863 750.633 711.795 984.502 631.006 1038.32C579.554 1072.6 489.855 1057.47 427.333 1039.34C369.901 1022.7 274.269 967.149 254.921 887.539C243.674 841.282 257.341 776.21 296.499 757.388C327.712 742.388 367.93 755.286 375.011 756.279C416.867 778.822 420.252 790.291 451.418 798.012C492.682 808.222 525.262 733.728 556.387 738.728Z" stroke="url(#paint2_radial_2930_886)" stroke-width="2" stroke-miterlimit="10"/>
<path d="M616.734 660.5C698.965 682.445 755.751 1014.23 638.617 1084.25C563.02 1129.44 449.746 1102.33 378.695 1073.59C314.419 1047.6 195.919 965.809 174.73 855.166C161.947 788.441 183.279 695.267 241.635 670.438C288.527 650.48 348.412 670.962 357.628 675.37C422.053 706.206 422.868 730.708 467.721 744.007C527.301 761.721 573.669 649.031 616.734 660.5Z" stroke="url(#paint3_radial_2930_886)" stroke-width="2" stroke-miterlimit="10"/>
<path d="M673.453 585.829C764.518 617.488 795.928 1047.18 642.6 1133.75C542.754 1189.62 405.953 1150.84 326.434 1111.42C255.241 1076.13 114.022 968.101 90.8821 826.351C76.6583 739.218 105.561 617.91 183.123 587.033C245.72 562.136 324.797 591.339 336.601 597.999C419.647 644.854 421.794 674.785 480.321 693.567C558.229 718.783 618.943 566.884 673.453 585.829Z" stroke="url(#paint4_radial_2930_886)" stroke-width="2" stroke-miterlimit="10"/>
<path d="M122.062 504.621C200.337 474.792 298.558 512.675 313.026 521.627C414.468 584.401 418.22 619.631 490.399 644.072C586.649 676.663 662.07 485.166 727.575 512.104C828.195 553.483 833.843 1081.63 643.986 1184.19C520.104 1251.1 359.51 1200.33 271.571 1150.18C193.473 1105.64 29.6375 971.373 4.49275 798.488C-11.1378 690.955 25.2814 541.497 122.062 504.621Z" stroke="url(#paint5_radial_2930_886)" stroke-width="2" stroke-miterlimit="10"/>
<path d="M969.074 450.201C938.241 449.943 901.265 396.414 928.917 387.476C944.887 382.306 987.171 390.482 1003.78 405.033C1027.17 425.508 990.291 450.385 969.074 450.201Z" stroke="url(#paint6_radial_2930_886)" stroke-width="2" stroke-miterlimit="10"/>
<path d="M885.281 394.972C888.298 387.789 902.427 384.598 915.319 375.85C941.469 358.096 945.22 349.661 963.794 338.954C971.038 334.77 980.783 329.274 990.298 331.791C1004.87 335.648 1008.5 352.341 1027 381.741C1050.97 419.944 1060.05 429.821 1053.2 450.065C1051.6 454.773 1049.54 470.017 1037.99 479.316C1022 492.173 1003.26 482.241 979.825 490.751C951.683 500.955 937.731 519.117 925.519 511.09C916.916 505.437 916.596 489.955 910.154 462.997C905.247 442.46 902.162 428.984 896.195 417.992C889.039 404.904 881.924 402.958 885.281 394.972Z" stroke="url(#paint7_radial_2930_886)" stroke-width="2" stroke-miterlimit="10"/>
<path d="M838.151 409.944C838.675 397.21 858.655 391.047 875.121 372.646C908.89 334.899 893.246 307.927 920.314 280.35C931.799 268.643 949.821 257.303 967.885 259.501C993.519 262.623 1002.13 289.132 1041.59 342.879C1093.19 413.148 1115.17 426.91 1110.35 464.357C1109.36 471.99 1108.4 501.295 1088.24 518.934C1061.35 542.456 1029.12 521.056 987.015 538.736C939.974 558.463 922.393 600.638 906.532 591.911C895.515 585.849 899.736 561.442 891.268 513.838C885.274 480.003 881.57 460.228 869.589 444.031C854.468 423.604 837.587 423.774 838.151 409.944Z" stroke="url(#paint8_radial_2930_886)" stroke-width="2" stroke-miterlimit="10"/>
<path d="M790.974 424.753C788.936 406.502 814.807 397.326 834.876 369.272C876.195 311.519 840.571 266.378 876.786 221.577C892.287 202.407 918.873 185.258 945.424 187.047C982.224 189.523 995.823 225.645 1056.2 303.853C1135.57 406.04 1169.76 424.032 1167.51 478.486C1167.07 489.105 1167.28 532.396 1138.51 558.408C1100.71 592.577 1054.92 559.667 994.233 586.571C928.244 615.821 907.096 681.989 887.537 672.588C874.115 666.085 882.712 632.78 872.375 564.53C865.24 517.396 860.938 491.417 842.97 469.922C819.809 442.222 793.156 444.412 790.974 424.753Z" stroke="url(#paint9_radial_2930_886)" stroke-width="2" stroke-miterlimit="10"/>
<path d="M743.688 439.521C739.115 415.774 770.804 403.55 794.522 365.864C843.303 288.071 787.624 224.937 833.156 162.769C852.62 136.172 887.836 113.206 922.862 114.553C970.855 116.404 989.224 162.259 1070.67 264.793C1177.57 399.074 1224.1 421.25 1224.51 492.581C1224.59 506.186 1225.94 563.422 1188.6 597.842C1139.85 642.616 1080.59 598.216 1001.27 634.372C916.324 673.105 891.608 763.326 868.434 753.231C852.599 746.306 865.58 704.077 853.374 615.189C845.076 554.749 840.204 522.6 816.248 495.778C785.028 460.84 748.609 465.058 743.688 439.521Z" stroke="url(#paint10_radial_2930_886)" stroke-width="2" stroke-miterlimit="10"/>
<path d="M696.314 454.283C703.973 485.71 750.145 479.452 789.418 521.627C819.367 553.783 824.811 592.087 834.271 665.84C848.318 775.36 830.975 826.521 849.222 833.861C876.045 844.657 904.323 730.375 1008.25 682.166C1106.15 636.752 1179 692.737 1238.63 637.269C1284.59 594.502 1282.04 523.321 1281.44 506.662C1278.27 418.474 1219.48 392.094 1085.04 225.719C982.523 98.8601 959.404 43.2838 900.191 42.0526C856.697 41.1478 812.83 69.9427 789.418 103.955C734.596 183.544 810.438 264.704 754.079 362.449C726.767 409.815 689.185 425.046 696.314 454.283Z" stroke="url(#paint11_radial_2930_886)" stroke-width="2" stroke-miterlimit="10"/>
<path d="M1088.13 960.115C1080.08 956.034 1063.19 963.897 1061.7 976.148C1060 990.046 1079.12 1001.54 1087.52 997.971C1097.46 993.74 1098.81 965.516 1088.13 960.115Z" stroke="url(#paint12_radial_2930_886)" stroke-width="2" stroke-miterlimit="10"/>
<path d="M1110.8 1033.96C1124.52 1021.12 1130.51 997.563 1137.37 957.183C1144.16 917.144 1143.1 888.478 1137.12 886.396C1133.87 885.274 1124.65 894.056 1116.74 900.491C1101.93 912.504 1076.58 911.171 1070.08 912.47C1046.3 917.232 1039.31 926.075 1029.37 943.014C1024.77 950.836 1014.04 968.183 1009.31 988.59C1002.11 1019.49 969.822 1029.02 973.756 1041.4C977.066 1051.74 1009.05 1054.25 1029.8 1054.55C1059.52 1054.97 1089.6 1053.78 1110.8 1033.96Z" stroke="url(#paint13_radial_2930_886)" stroke-width="2" stroke-miterlimit="10"/>
<path d="M1134.57 1068.46C1157.12 1045.53 1165.98 1007.03 1179.64 935.041C1193.52 862.703 1193.43 813.086 1186.6 811.236C1181.47 809.821 1164.85 827.705 1150.73 840.487C1124.11 864.683 1076.46 860.703 1066.64 862.254C1021.85 869.179 1010.81 885.771 993.458 917.13C986.227 930.191 966.39 962.026 957.351 999.624C943.44 1057.22 877.486 1072.3 882.943 1093.65C887.503 1111.44 948.666 1114.16 987.151 1112.7C1041.49 1110.59 1096.48 1107.24 1134.57 1068.46Z" stroke="url(#paint14_radial_2930_886)" stroke-width="2" stroke-miterlimit="10"/>
<path d="M1158.22 1102.75C1189.61 1069.72 1201.25 1016.26 1221.79 912.675C1242.64 808.018 1243.61 737.565 1235.94 735.81C1228.9 734.177 1204.91 761.115 1184.61 780.278C1146.25 816.719 1076.23 810.018 1063.08 811.773C997.311 820.562 982.163 845.14 957.44 890.988C947.572 909.28 918.642 955.612 905.274 1010.38C884.676 1094.67 785.048 1115.3 792.014 1145.63C797.831 1170.85 888.183 1173.9 944.398 1170.56C1023.34 1166.11 1103.33 1160.52 1158.22 1102.75Z" stroke="url(#paint15_radial_2930_886)" stroke-width="2" stroke-miterlimit="10"/>
<path d="M1181.79 1137.01C1222.04 1093.89 1236.44 1025.45 1263.86 890.281C1291.72 753.32 1293.76 662.051 1285.21 660.357C1276.27 658.568 1244.88 694.451 1218.43 720.008C1168.25 768.612 1075.95 759.258 1059.47 761.265C972.71 771.802 953.335 804.427 921.353 864.812C908.808 888.322 870.826 949.163 853.143 1021.11C825.837 1132.1 692.536 1158.27 701.031 1197.57C708.092 1230.22 827.631 1233.48 901.584 1228.4C1005.09 1221.42 1110.12 1213.79 1181.79 1137.01Z" stroke="url(#paint16_radial_2930_886)" stroke-width="2" stroke-miterlimit="10"/>
<path d="M1055.82 710.736C948.082 722.981 924.656 763.795 885.24 838.623C870.085 867.39 822.976 942.701 800.971 1031.81C766.992 1169.51 599.996 1201.23 610.006 1249.49C618.325 1289.63 767.046 1293.03 858.736 1286.23C986.852 1276.7 1116.91 1267.06 1205.33 1171.26C1254.45 1118.03 1271.61 1034.65 1305.91 867.873C1340.72 698.601 1343.83 586.537 1334.45 584.89C1323.57 582.986 1284.84 627.746 1252.22 659.718C1190.21 720.477 1075.63 708.485 1055.82 710.736Z" stroke="url(#paint17_radial_2930_886)" stroke-width="2" stroke-miterlimit="10"/>
<path d="M179.827 383.537C192.059 430.474 279.862 408.427 384.383 514.145C421.835 552.028 446.946 591.652 496.515 597.815C501.517 598.434 551.175 603.869 586.221 571.966C630.313 531.831 603.401 476.153 654.859 398.502C673.813 369.898 676.966 378.204 690.878 355.647C750.247 259.358 659.698 161.606 711.945 63.8205C735.996 18.8085 771.749 8.47555 768.351 2.59821C753.685 -22.6186 146.772 257.058 179.827 383.537Z" stroke="url(#paint18_radial_2930_886)" stroke-width="2" stroke-miterlimit="10"/>
<path d="M510.107 533.647C513.111 533.239 545.853 535.688 568.314 513.131C596.714 484.649 576.469 445.433 609.008 392.489C620.982 372.993 622.647 378.279 631.169 362.857C667.527 297.05 602.273 230.849 634.227 166.429C649.015 136.607 672.359 129.771 668.886 126.859C653.181 113.581 252.584 309.744 284.048 395.101C295.846 427.114 360.251 415.754 433.945 484.703C460.742 509.757 478.887 537.885 510.107 533.647Z" stroke="url(#paint19_radial_2930_886)" stroke-width="2" stroke-miterlimit="10"/>
<path d="M523.699 469.473C524.555 467.316 540.566 467.364 550.407 454.296C563.183 437.345 549.577 414.76 563.156 386.482C568.137 376.102 568.341 378.319 571.467 370.068C584.889 334.58 544.793 300.132 556.516 269.031C562 254.392 572.194 251.895 569.476 251.113C549.605 253.936 358.803 362.619 388.236 406.665C399.728 423.876 440.864 423.053 483.474 455.262C499.668 467.507 510.27 476.472 523.699 469.473Z" stroke="url(#paint20_radial_2930_886)" stroke-width="2" stroke-miterlimit="10"/>
<path d="M537.29 405.305C526.743 374.456 485.22 363.966 470.011 375.374C447.585 392.217 466.715 414.148 492.438 418.23C511.663 421.257 549.36 440.61 537.29 405.305Z" stroke="url(#paint21_radial_2930_886)" stroke-width="2" stroke-miterlimit="10"/>
</g>
<defs>
<radialGradient id="paint0_radial_2930_886" cx="0" cy="0" r="1" gradientUnits="userSpaceOnUse" gradientTransform="translate(1245 282.5) rotate(148.564) scale(1238.58 1285.85)">
<stop stop-color="white" stop-opacity="0.53"/>
<stop offset="1" stop-color="white" stop-opacity="0"/>
</radialGradient>
<radialGradient id="paint1_radial_2930_886" cx="0" cy="0" r="1" gradientUnits="userSpaceOnUse" gradientTransform="translate(1245 282.5) rotate(148.564) scale(1238.58 1285.85)">
<stop stop-color="white" stop-opacity="0.53"/>
<stop offset="1" stop-color="white" stop-opacity="0"/>
</radialGradient>
<radialGradient id="paint2_radial_2930_886" cx="0" cy="0" r="1" gradientUnits="userSpaceOnUse" gradientTransform="translate(1245 282.5) rotate(148.564) scale(1238.58 1285.85)">
<stop stop-color="white" stop-opacity="0.53"/>
<stop offset="1" stop-color="white" stop-opacity="0"/>
</radialGradient>
<radialGradient id="paint3_radial_2930_886" cx="0" cy="0" r="1" gradientUnits="userSpaceOnUse" gradientTransform="translate(1245 282.5) rotate(148.564) scale(1238.58 1285.85)">
<stop stop-color="white" stop-opacity="0.53"/>
<stop offset="1" stop-color="white" stop-opacity="0"/>
</radialGradient>
<radialGradient id="paint4_radial_2930_886" cx="0" cy="0" r="1" gradientUnits="userSpaceOnUse" gradientTransform="translate(1245 282.5) rotate(148.564) scale(1238.58 1285.85)">
<stop stop-color="white" stop-opacity="0.53"/>
<stop offset="1" stop-color="white" stop-opacity="0"/>
</radialGradient>
<radialGradient id="paint5_radial_2930_886" cx="0" cy="0" r="1" gradientUnits="userSpaceOnUse" gradientTransform="translate(1245 282.5) rotate(148.564) scale(1238.58 1285.85)">
<stop stop-color="white" stop-opacity="0.53"/>
<stop offset="1" stop-color="white" stop-opacity="0"/>
</radialGradient>
<radialGradient id="paint6_radial_2930_886" cx="0" cy="0" r="1" gradientUnits="userSpaceOnUse" gradientTransform="translate(1245 282.5) rotate(148.564) scale(1238.58 1285.85)">
<stop stop-color="white" stop-opacity="0.53"/>
<stop offset="1" stop-color="white" stop-opacity="0"/>
</radialGradient>
<radialGradient id="paint7_radial_2930_886" cx="0" cy="0" r="1" gradientUnits="userSpaceOnUse" gradientTransform="translate(1245 282.5) rotate(148.564) scale(1238.58 1285.85)">
<stop stop-color="white" stop-opacity="0.53"/>
<stop offset="1" stop-color="white" stop-opacity="0"/>
</radialGradient>
<radialGradient id="paint8_radial_2930_886" cx="0" cy="0" r="1" gradientUnits="userSpaceOnUse" gradientTransform="translate(1245 282.5) rotate(148.564) scale(1238.58 1285.85)">
<stop stop-color="white" stop-opacity="0.53"/>
<stop offset="1" stop-color="white" stop-opacity="0"/>
</radialGradient>
<radialGradient id="paint9_radial_2930_886" cx="0" cy="0" r="1" gradientUnits="userSpaceOnUse" gradientTransform="translate(1245 282.5) rotate(148.564) scale(1238.58 1285.85)">
<stop stop-color="white" stop-opacity="0.53"/>
<stop offset="1" stop-color="white" stop-opacity="0"/>
</radialGradient>
<radialGradient id="paint10_radial_2930_886" cx="0" cy="0" r="1" gradientUnits="userSpaceOnUse" gradientTransform="translate(1245 282.5) rotate(148.564) scale(1238.58 1285.85)">
<stop stop-color="white" stop-opacity="0.53"/>
<stop offset="1" stop-color="white" stop-opacity="0"/>
</radialGradient>
<radialGradient id="paint11_radial_2930_886" cx="0" cy="0" r="1" gradientUnits="userSpaceOnUse" gradientTransform="translate(1245 282.5) rotate(148.564) scale(1238.58 1285.85)">
<stop stop-color="white" stop-opacity="0.53"/>
<stop offset="1" stop-color="white" stop-opacity="0"/>
</radialGradient>
<radialGradient id="paint12_radial_2930_886" cx="0" cy="0" r="1" gradientUnits="userSpaceOnUse" gradientTransform="translate(1245 282.5) rotate(148.564) scale(1238.58 1285.85)">
<stop stop-color="white" stop-opacity="0.53"/>
<stop offset="1" stop-color="white" stop-opacity="0"/>
</radialGradient>
<radialGradient id="paint13_radial_2930_886" cx="0" cy="0" r="1" gradientUnits="userSpaceOnUse" gradientTransform="translate(1245 282.5) rotate(148.564) scale(1238.58 1285.85)">
<stop stop-color="white" stop-opacity="0.53"/>
<stop offset="1" stop-color="white" stop-opacity="0"/>
</radialGradient>
<radialGradient id="paint14_radial_2930_886" cx="0" cy="0" r="1" gradientUnits="userSpaceOnUse" gradientTransform="translate(1245 282.5) rotate(148.564) scale(1238.58 1285.85)">
<stop stop-color="white" stop-opacity="0.53"/>
<stop offset="1" stop-color="white" stop-opacity="0"/>
</radialGradient>
<radialGradient id="paint15_radial_2930_886" cx="0" cy="0" r="1" gradientUnits="userSpaceOnUse" gradientTransform="translate(1245 282.5) rotate(148.564) scale(1238.58 1285.85)">
<stop stop-color="white" stop-opacity="0.53"/>
<stop offset="1" stop-color="white" stop-opacity="0"/>
</radialGradient>
<radialGradient id="paint16_radial_2930_886" cx="0" cy="0" r="1" gradientUnits="userSpaceOnUse" gradientTransform="translate(1245 282.5) rotate(148.564) scale(1238.58 1285.85)">
<stop stop-color="white" stop-opacity="0.53"/>
<stop offset="1" stop-color="white" stop-opacity="0"/>
</radialGradient>
<radialGradient id="paint17_radial_2930_886" cx="0" cy="0" r="1" gradientUnits="userSpaceOnUse" gradientTransform="translate(1245 282.5) rotate(148.564) scale(1238.58 1285.85)">
<stop stop-color="white" stop-opacity="0.53"/>
<stop offset="1" stop-color="white" stop-opacity="0"/>
</radialGradient>
<radialGradient id="paint18_radial_2930_886" cx="0" cy="0" r="1" gradientUnits="userSpaceOnUse" gradientTransform="translate(1245 282.5) rotate(148.564) scale(1238.58 1285.85)">
<stop stop-color="white" stop-opacity="0.53"/>
<stop offset="1" stop-color="white" stop-opacity="0"/>
</radialGradient>
<radialGradient id="paint19_radial_2930_886" cx="0" cy="0" r="1" gradientUnits="userSpaceOnUse" gradientTransform="translate(1245 282.5) rotate(148.564) scale(1238.58 1285.85)">
<stop stop-color="white" stop-opacity="0.53"/>
<stop offset="1" stop-color="white" stop-opacity="0"/>
</radialGradient>
<radialGradient id="paint20_radial_2930_886" cx="0" cy="0" r="1" gradientUnits="userSpaceOnUse" gradientTransform="translate(1245 282.5) rotate(148.564) scale(1238.58 1285.85)">
<stop stop-color="white" stop-opacity="0.53"/>
<stop offset="1" stop-color="white" stop-opacity="0"/>
</radialGradient>
<radialGradient id="paint21_radial_2930_886" cx="0" cy="0" r="1" gradientUnits="userSpaceOnUse" gradientTransform="translate(1245 282.5) rotate(148.564) scale(1238.58 1285.85)">
<stop stop-color="white" stop-opacity="0.53"/>
<stop offset="1" stop-color="white" stop-opacity="0"/>
</radialGradient>
</defs>
</svg>
