<svg width="845" height="785" viewBox="0 0 845 785" fill="none" xmlns="http://www.w3.org/2000/svg">
<path d="M266.098 543.178C248.41 550.332 241.692 567.87 253.253 577.882C277.038 598.484 374.956 588.307 379.563 574.342C384.102 560.584 303.006 528.245 266.098 543.178Z" stroke="url(#paint0_radial_2942_932)" stroke-width="2" stroke-miterlimit="10"/>
<path d="M309.926 497.354C350.328 483.683 418.167 581.021 390.165 604.001C372.948 618.132 331.27 616.366 297.282 611.722C265.374 607.363 219.783 589.54 208.535 559.939C202.579 544.224 206.154 521.836 218.768 513.995C228.53 507.928 241.709 510.658 244.617 509.649C258.476 515.203 260.51 517.361 271.553 518.664C285.986 520.368 298.814 501.113 309.926 497.354Z" stroke="url(#paint1_radial_2942_932)" stroke-width="2" stroke-miterlimit="10"/>
<path d="M350.919 449.479C397.842 456.716 448.833 598.89 397.932 631.609C365.515 652.447 309.001 643.246 269.609 632.229C233.424 622.11 173.172 588.34 160.982 539.944C153.896 511.824 162.506 472.265 187.177 460.823C206.843 451.704 232.182 459.545 236.644 460.148C263.015 473.853 265.147 480.825 284.783 485.519C310.782 491.726 331.308 446.44 350.919 449.479Z" stroke="url(#paint2_radial_2942_932)" stroke-width="2" stroke-miterlimit="10"/>
<path d="M388.94 401.923C440.749 415.263 476.527 616.961 402.727 659.531C355.098 687.002 283.73 670.522 238.965 653.051C198.468 637.249 123.808 587.526 110.458 520.264C102.404 479.701 115.844 423.059 152.611 407.964C182.155 395.831 219.885 408.283 225.691 410.963C266.282 429.708 266.796 444.604 295.055 452.688C332.593 463.457 361.807 394.95 388.94 401.923Z" stroke="url(#paint3_radial_2942_932)" stroke-width="2" stroke-miterlimit="10"/>
<path d="M424.676 356.529C482.05 375.775 501.841 636.993 405.236 689.62C342.33 723.583 256.139 700.008 206.038 676.043C161.183 654.593 72.209 588.919 57.6297 502.747C48.6681 449.777 66.8782 376.031 115.745 357.261C155.184 342.125 205.006 359.878 212.444 363.927C264.766 392.411 266.119 410.607 302.993 422.025C352.079 437.354 390.332 345.012 424.676 356.529Z" stroke="url(#paint4_radial_2942_932)" stroke-width="2" stroke-miterlimit="10"/>
<path d="M77.2743 307.161C126.591 289.027 188.475 312.057 197.59 317.499C261.504 355.66 263.867 377.077 309.343 391.936C369.985 411.748 417.504 295.334 458.775 311.71C522.17 336.865 525.728 657.939 406.11 720.283C328.059 760.963 226.877 730.096 171.472 699.606C122.267 672.532 19.0429 590.909 3.20059 485.808C-6.64735 420.437 16.2984 329.579 77.2743 307.161Z" stroke="url(#paint5_radial_2942_932)" stroke-width="2" stroke-miterlimit="10"/>
<path d="M610.93 274.078C591.504 273.921 568.207 241.38 585.629 235.946C595.691 232.803 622.332 237.774 632.797 246.619C647.534 259.067 624.298 274.19 610.93 274.078Z" stroke="url(#paint6_radial_2942_932)" stroke-width="2" stroke-miterlimit="10"/>
<path d="M558.136 240.503C560.038 236.136 568.939 234.197 577.062 228.879C593.538 218.085 595.901 212.958 607.603 206.448C612.167 203.905 618.307 200.564 624.302 202.094C633.482 204.439 635.773 214.587 647.423 232.46C662.529 255.684 668.249 261.689 663.933 273.995C662.927 276.857 661.626 286.124 654.351 291.777C644.276 299.593 632.467 293.556 617.704 298.729C599.973 304.932 591.183 315.973 583.489 311.094C578.068 307.657 577.867 298.245 573.808 281.857C570.716 269.372 568.772 261.18 565.013 254.497C560.504 246.541 556.021 245.358 558.136 240.503Z" stroke="url(#paint7_radial_2942_932)" stroke-width="2" stroke-miterlimit="10"/>
<path d="M528.443 249.605C528.773 241.864 541.361 238.117 551.735 226.931C573.011 203.984 563.155 187.587 580.209 170.822C587.445 163.705 598.8 156.812 610.181 158.148C626.331 160.046 631.756 176.161 656.62 208.835C689.127 251.553 702.974 259.919 699.938 282.684C699.318 287.324 698.714 305.139 686.01 315.862C669.067 330.162 648.759 317.152 622.234 327.9C592.596 339.892 581.519 365.532 571.525 360.226C564.585 356.541 567.244 341.704 561.909 312.764C558.132 292.195 555.799 280.174 548.25 270.327C538.723 257.909 528.087 258.012 528.443 249.605Z" stroke="url(#paint8_radial_2942_932)" stroke-width="2" stroke-miterlimit="10"/>
<path d="M498.719 258.608C497.435 247.513 513.735 241.934 526.379 224.88C552.412 189.771 529.967 162.328 552.784 135.093C562.551 123.439 579.301 113.014 596.03 114.102C619.215 115.607 627.783 137.566 665.822 185.11C715.832 247.231 737.369 258.169 735.956 291.273C735.678 297.728 735.806 324.046 717.682 339.859C693.867 360.631 665.017 340.624 626.781 356.98C585.206 374.762 571.881 414.986 559.558 409.271C551.102 405.318 556.518 385.071 550.006 343.581C545.51 314.927 542.799 299.134 531.479 286.066C516.886 269.227 500.094 270.559 498.719 258.608Z" stroke="url(#paint9_radial_2942_932)" stroke-width="2" stroke-miterlimit="10"/>
<path d="M468.927 267.586C466.045 253.149 486.011 245.718 500.954 222.808C531.688 175.516 496.608 137.136 525.296 99.3427C537.559 83.1735 559.746 69.2125 581.814 70.0313C612.052 71.1561 623.625 99.0326 674.937 161.365C742.293 242.997 771.606 256.478 771.867 299.841C771.918 308.112 772.766 342.907 749.242 363.832C718.525 391.051 681.189 364.059 631.217 386.039C577.695 409.586 562.123 464.433 547.522 458.296C537.546 454.086 545.724 428.414 538.034 374.377C532.806 337.634 529.736 318.091 514.643 301.785C494.973 280.546 472.027 283.11 468.927 267.586Z" stroke="url(#paint10_radial_2942_932)" stroke-width="2" stroke-miterlimit="10"/>
<path d="M439.079 276.559C443.905 295.665 472.995 291.86 497.739 317.499C516.608 337.047 520.038 360.333 525.998 405.169C534.848 471.748 523.921 502.85 535.418 507.312C552.318 513.875 570.134 444.401 635.61 415.094C697.292 387.486 743.192 421.52 780.76 387.8C809.722 361.801 808.112 318.529 807.735 308.402C805.74 254.791 768.698 238.754 683.993 137.611C619.404 60.491 604.837 26.7052 567.531 25.9567C540.128 25.4067 512.489 42.9116 497.739 63.5884C463.198 111.972 510.982 161.311 475.474 220.732C458.266 249.526 434.588 258.786 439.079 276.559Z" stroke="url(#paint11_radial_2942_932)" stroke-width="2" stroke-miterlimit="10"/>
<path d="M685.941 584.064C680.872 581.583 670.227 586.364 669.286 593.812C668.219 602.26 680.264 609.249 685.556 607.078C691.816 604.506 692.668 587.348 685.941 584.064Z" stroke="url(#paint12_radial_2942_932)" stroke-width="2" stroke-miterlimit="10"/>
<path d="M700.225 628.954C708.866 621.15 712.642 606.83 716.963 582.282C721.244 557.941 720.572 540.515 716.808 539.25C714.757 538.567 708.947 543.906 703.963 547.818C694.633 555.121 678.663 554.311 674.569 555.1C659.583 557.995 655.182 563.371 648.917 573.668C646.019 578.424 639.258 588.969 636.282 601.375C631.743 620.162 611.401 625.951 613.88 633.482C615.965 639.768 636.119 641.294 649.187 641.472C667.915 641.728 686.866 641.004 700.225 628.954Z" stroke="url(#paint13_radial_2942_932)" stroke-width="2" stroke-miterlimit="10"/>
<path d="M715.203 649.932C729.405 635.988 734.993 612.586 743.599 568.822C752.342 524.846 752.287 494.683 747.979 493.558C744.746 492.698 734.278 503.57 725.38 511.34C708.609 526.049 678.585 523.63 672.398 524.573C644.182 528.783 637.228 538.869 626.293 557.933C621.737 565.873 609.239 585.227 603.544 608.083C594.779 643.097 553.225 652.265 556.664 665.246C559.537 676.055 598.072 677.714 622.319 676.825C656.556 675.539 691.204 673.504 715.203 649.932Z" stroke="url(#paint14_radial_2942_932)" stroke-width="2" stroke-miterlimit="10"/>
<path d="M730.099 670.775C749.876 650.693 757.211 618.194 770.15 555.224C783.291 491.602 783.903 448.772 779.064 447.705C774.633 446.713 759.514 463.089 746.729 474.738C722.559 496.891 678.444 492.818 670.159 493.885C628.721 499.228 619.177 514.169 603.6 542.041C597.383 553.161 579.155 581.327 570.733 614.621C557.755 665.866 494.985 678.404 499.374 696.84C503.039 712.174 559.965 714.03 595.383 712C645.12 709.291 695.515 705.892 730.099 670.775Z" stroke="url(#paint15_radial_2942_932)" stroke-width="2" stroke-miterlimit="10"/>
<path d="M744.948 691.604C770.313 665.386 779.386 623.785 796.658 541.611C814.213 458.35 815.498 402.866 810.111 401.836C804.476 400.748 784.699 422.562 768.035 438.099C736.419 467.646 678.264 461.96 667.881 463.18C613.221 469.585 601.014 489.419 580.864 526.128C572.96 540.42 549.029 577.407 537.888 621.142C520.684 688.615 436.698 704.527 442.051 728.417C446.499 748.267 521.815 750.248 568.408 747.163C633.623 742.916 699.797 738.28 744.948 691.604Z" stroke="url(#paint16_radial_2942_932)" stroke-width="2" stroke-miterlimit="10"/>
<path d="M665.582 432.462C597.704 439.906 582.945 464.718 558.111 510.207C548.563 527.695 518.882 573.478 505.018 627.651C483.609 711.359 378.394 730.642 384.701 759.983C389.942 784.381 483.643 786.449 541.412 782.314C622.131 776.524 704.07 770.66 759.78 712.426C790.732 680.067 801.539 629.376 823.149 527.989C845.084 425.085 847.041 356.959 841.132 355.958C834.281 354.8 809.876 382.011 789.323 401.447C750.257 438.384 678.067 431.093 665.582 432.462Z" stroke="url(#paint17_radial_2942_932)" stroke-width="2" stroke-miterlimit="10"/>
<path d="M113.669 233.552C121.376 262.086 176.696 248.683 242.548 312.95C266.145 335.98 281.966 360.069 313.197 363.815C316.348 364.192 347.635 367.496 369.715 348.101C397.495 323.702 380.54 289.854 412.961 242.649C424.902 225.26 426.889 230.309 435.654 216.597C473.059 158.061 416.009 98.6356 448.927 39.1898C464.08 11.8261 486.606 5.54453 484.465 1.97158C475.225 -13.3582 92.8426 156.663 113.669 233.552Z" stroke="url(#paint18_radial_2942_932)" stroke-width="2" stroke-miterlimit="10"/>
<path d="M321.76 324.807C323.653 324.558 344.282 326.047 358.433 312.334C376.326 295.02 363.571 271.179 384.072 238.994C391.616 227.142 392.665 230.355 398.035 220.98C420.942 180.975 379.829 140.729 399.961 101.568C409.278 83.4381 423.986 79.2821 421.798 77.5121C411.903 69.4399 159.509 188.691 179.333 240.582C186.766 260.043 227.344 253.137 273.775 295.053C290.658 310.283 302.09 327.383 321.76 324.807Z" stroke="url(#paint19_radial_2942_932)" stroke-width="2" stroke-miterlimit="10"/>
<path d="M330.324 285.794C330.863 284.483 340.951 284.512 347.151 276.568C355.2 266.262 346.628 252.533 355.183 235.342C358.322 229.032 358.45 230.38 360.42 225.364C368.876 203.789 343.614 182.848 351 163.941C354.455 155.042 360.878 153.524 359.165 153.049C346.646 154.765 226.432 220.835 244.976 247.612C252.217 258.074 278.134 257.574 304.98 277.155C315.183 284.598 321.863 290.049 330.324 285.794Z" stroke="url(#paint20_radial_2942_932)" stroke-width="2" stroke-miterlimit="10"/>
<path d="M338.887 246.785C332.242 228.031 306.081 221.654 296.498 228.589C282.368 238.828 294.421 252.161 310.628 254.642C322.741 256.482 346.491 268.247 338.887 246.785Z" stroke="url(#paint21_radial_2942_932)" stroke-width="2" stroke-miterlimit="10"/>
<defs>
<radialGradient id="paint0_radial_2942_932" cx="0" cy="0" r="1" gradientUnits="userSpaceOnUse" gradientTransform="translate(686.154 392.5) rotate(157.335) scale(553.581 560.656)">
<stop stop-color="#0F172A" stop-opacity="0.09"/>
<stop offset="1" stop-color="#0F172A" stop-opacity="0"/>
</radialGradient>
<radialGradient id="paint1_radial_2942_932" cx="0" cy="0" r="1" gradientUnits="userSpaceOnUse" gradientTransform="translate(686.154 392.5) rotate(157.335) scale(553.581 560.656)">
<stop stop-color="#0F172A" stop-opacity="0.09"/>
<stop offset="1" stop-color="#0F172A" stop-opacity="0"/>
</radialGradient>
<radialGradient id="paint2_radial_2942_932" cx="0" cy="0" r="1" gradientUnits="userSpaceOnUse" gradientTransform="translate(686.154 392.5) rotate(157.335) scale(553.581 560.656)">
<stop stop-color="#0F172A" stop-opacity="0.09"/>
<stop offset="1" stop-color="#0F172A" stop-opacity="0"/>
</radialGradient>
<radialGradient id="paint3_radial_2942_932" cx="0" cy="0" r="1" gradientUnits="userSpaceOnUse" gradientTransform="translate(686.154 392.5) rotate(157.335) scale(553.581 560.656)">
<stop stop-color="#0F172A" stop-opacity="0.09"/>
<stop offset="1" stop-color="#0F172A" stop-opacity="0"/>
</radialGradient>
<radialGradient id="paint4_radial_2942_932" cx="0" cy="0" r="1" gradientUnits="userSpaceOnUse" gradientTransform="translate(686.154 392.5) rotate(157.335) scale(553.581 560.656)">
<stop stop-color="#0F172A" stop-opacity="0.09"/>
<stop offset="1" stop-color="#0F172A" stop-opacity="0"/>
</radialGradient>
<radialGradient id="paint5_radial_2942_932" cx="0" cy="0" r="1" gradientUnits="userSpaceOnUse" gradientTransform="translate(686.154 392.5) rotate(157.335) scale(553.581 560.656)">
<stop stop-color="#0F172A" stop-opacity="0.09"/>
<stop offset="1" stop-color="#0F172A" stop-opacity="0"/>
</radialGradient>
<radialGradient id="paint6_radial_2942_932" cx="0" cy="0" r="1" gradientUnits="userSpaceOnUse" gradientTransform="translate(686.154 392.5) rotate(157.335) scale(553.581 560.656)">
<stop stop-color="#0F172A" stop-opacity="0.09"/>
<stop offset="1" stop-color="#0F172A" stop-opacity="0"/>
</radialGradient>
<radialGradient id="paint7_radial_2942_932" cx="0" cy="0" r="1" gradientUnits="userSpaceOnUse" gradientTransform="translate(686.154 392.5) rotate(157.335) scale(553.581 560.656)">
<stop stop-color="#0F172A" stop-opacity="0.09"/>
<stop offset="1" stop-color="#0F172A" stop-opacity="0"/>
</radialGradient>
<radialGradient id="paint8_radial_2942_932" cx="0" cy="0" r="1" gradientUnits="userSpaceOnUse" gradientTransform="translate(686.154 392.5) rotate(157.335) scale(553.581 560.656)">
<stop stop-color="#0F172A" stop-opacity="0.09"/>
<stop offset="1" stop-color="#0F172A" stop-opacity="0"/>
</radialGradient>
<radialGradient id="paint9_radial_2942_932" cx="0" cy="0" r="1" gradientUnits="userSpaceOnUse" gradientTransform="translate(686.154 392.5) rotate(157.335) scale(553.581 560.656)">
<stop stop-color="#0F172A" stop-opacity="0.09"/>
<stop offset="1" stop-color="#0F172A" stop-opacity="0"/>
</radialGradient>
<radialGradient id="paint10_radial_2942_932" cx="0" cy="0" r="1" gradientUnits="userSpaceOnUse" gradientTransform="translate(686.154 392.5) rotate(157.335) scale(553.581 560.656)">
<stop stop-color="#0F172A" stop-opacity="0.09"/>
<stop offset="1" stop-color="#0F172A" stop-opacity="0"/>
</radialGradient>
<radialGradient id="paint11_radial_2942_932" cx="0" cy="0" r="1" gradientUnits="userSpaceOnUse" gradientTransform="translate(686.154 392.5) rotate(157.335) scale(553.581 560.656)">
<stop stop-color="#0F172A" stop-opacity="0.09"/>
<stop offset="1" stop-color="#0F172A" stop-opacity="0"/>
</radialGradient>
<radialGradient id="paint12_radial_2942_932" cx="0" cy="0" r="1" gradientUnits="userSpaceOnUse" gradientTransform="translate(686.154 392.5) rotate(157.335) scale(553.581 560.656)">
<stop stop-color="#0F172A" stop-opacity="0.09"/>
<stop offset="1" stop-color="#0F172A" stop-opacity="0"/>
</radialGradient>
<radialGradient id="paint13_radial_2942_932" cx="0" cy="0" r="1" gradientUnits="userSpaceOnUse" gradientTransform="translate(686.154 392.5) rotate(157.335) scale(553.581 560.656)">
<stop stop-color="#0F172A" stop-opacity="0.09"/>
<stop offset="1" stop-color="#0F172A" stop-opacity="0"/>
</radialGradient>
<radialGradient id="paint14_radial_2942_932" cx="0" cy="0" r="1" gradientUnits="userSpaceOnUse" gradientTransform="translate(686.154 392.5) rotate(157.335) scale(553.581 560.656)">
<stop stop-color="#0F172A" stop-opacity="0.09"/>
<stop offset="1" stop-color="#0F172A" stop-opacity="0"/>
</radialGradient>
<radialGradient id="paint15_radial_2942_932" cx="0" cy="0" r="1" gradientUnits="userSpaceOnUse" gradientTransform="translate(686.154 392.5) rotate(157.335) scale(553.581 560.656)">
<stop stop-color="#0F172A" stop-opacity="0.09"/>
<stop offset="1" stop-color="#0F172A" stop-opacity="0"/>
</radialGradient>
<radialGradient id="paint16_radial_2942_932" cx="0" cy="0" r="1" gradientUnits="userSpaceOnUse" gradientTransform="translate(686.154 392.5) rotate(157.335) scale(553.581 560.656)">
<stop stop-color="#0F172A" stop-opacity="0.09"/>
<stop offset="1" stop-color="#0F172A" stop-opacity="0"/>
</radialGradient>
<radialGradient id="paint17_radial_2942_932" cx="0" cy="0" r="1" gradientUnits="userSpaceOnUse" gradientTransform="translate(686.154 392.5) rotate(157.335) scale(553.581 560.656)">
<stop stop-color="#0F172A" stop-opacity="0.09"/>
<stop offset="1" stop-color="#0F172A" stop-opacity="0"/>
</radialGradient>
<radialGradient id="paint18_radial_2942_932" cx="0" cy="0" r="1" gradientUnits="userSpaceOnUse" gradientTransform="translate(686.154 392.5) rotate(157.335) scale(553.581 560.656)">
<stop stop-color="#0F172A" stop-opacity="0.09"/>
<stop offset="1" stop-color="#0F172A" stop-opacity="0"/>
</radialGradient>
<radialGradient id="paint19_radial_2942_932" cx="0" cy="0" r="1" gradientUnits="userSpaceOnUse" gradientTransform="translate(686.154 392.5) rotate(157.335) scale(553.581 560.656)">
<stop stop-color="#0F172A" stop-opacity="0.09"/>
<stop offset="1" stop-color="#0F172A" stop-opacity="0"/>
</radialGradient>
<radialGradient id="paint20_radial_2942_932" cx="0" cy="0" r="1" gradientUnits="userSpaceOnUse" gradientTransform="translate(686.154 392.5) rotate(157.335) scale(553.581 560.656)">
<stop stop-color="#0F172A" stop-opacity="0.09"/>
<stop offset="1" stop-color="#0F172A" stop-opacity="0"/>
</radialGradient>
<radialGradient id="paint21_radial_2942_932" cx="0" cy="0" r="1" gradientUnits="userSpaceOnUse" gradientTransform="translate(686.154 392.5) rotate(157.335) scale(553.581 560.656)">
<stop stop-color="#0F172A" stop-opacity="0.09"/>
<stop offset="1" stop-color="#0F172A" stop-opacity="0"/>
</radialGradient>
</defs>
</svg>
